<svg xmlns="http://www.w3.org/2000/svg" viewBox="0 0 558.47 517.68">
    <path d="M279.24,8.43C141.15,8.43,28.82,120.76,28.82,258.84s112.34,250.42,250.42,250.42,250.42-112.34,250.42-250.42S417.32,8.43,279.24,8.43ZM279.24,495.98c-41.74,0-80.99-10.86-115.1-29.87,36.74-6.57,65.8-34.56,74.7-72.09,10.27-43.32,1.26-90.77-8.86-133.27-5.11-21.46-11.03-42.75-15.2-64.43-4.07-21.12-7.62-44.5-3.63-65.89,6.6-35.35,38.79-67.37,76.06-67.31,9.49.01,9.5-14.73,0-14.74-30.83-.05-60.48,19.2-76.9,44.59-22.21,34.34-16.1,77.72-8.06,115.58,9.52,44.85,23.78,88.47,25.63,134.64,1.36,33.79-2.94,72.24-32.2,93.96-14.08,10.45-32.32,16.35-49.58,16.12-.97-.01-1.57-.02-2.5-.02-61.32-42.91-101.5-114.05-101.5-194.4,0-130.76,106.38-237.14,237.14-237.14,40.97,0,79.55,10.45,113.21,28.81-23.98,5.67-45.67,22.08-58.85,42.44-22.21,34.34-16.1,77.72-8.06,115.58,9.52,44.85,23.78,88.47,25.63,134.64,1.36,33.79-2.94,72.24-32.2,93.96-14.08,10.45-32.22,15.93-49.47,15.7-9.49-.12-9.49,14.62,0,14.74,44.99.59,82.34-30.1,92.64-73.56,10.27-43.32,1.26-90.77-8.86-133.27-5.11-21.46-11.03-42.75-15.2-64.43-4.07-21.12-7.62-44.5-3.63-65.89,6.6-35.35,38.79-67.37,76.06-67.31.75,0,1.42.02,2.08.02,62.61,42.73,103.8,114.35,103.8,195.7,0,130.76-106.38,237.14-237.14,237.14Z" />
    <style>
        path { fill: #000; }
        @media (prefers-color-scheme: dark) {
            path { fill: #FFF; }
        }
    </style>
</svg>
